<svg width="16" height="16" viewBox="0 0 16 16" fill="none" xmlns="http://www.w3.org/2000/svg">
<path d="M7.98373 1.46797C9.27565 1.46797 10.5386 1.85107 11.6128 2.56883C12.687 3.28658 13.5242 4.30676 14.0186 5.50034C14.513 6.69392 14.6424 8.00731 14.3903 9.27441C14.1383 10.5415 13.5161 11.7054 12.6026 12.6189C11.6891 13.5325 10.5252 14.1546 9.25807 14.4066C7.99097 14.6587 6.67759 14.5293 5.484 14.0349C4.29042 13.5405 3.27025 12.7033 2.55249 11.6291C1.83473 10.5549 1.45163 9.29199 1.45163 8.00006C1.45832 6.2697 2.14867 4.61212 3.37223 3.38857C4.59579 2.16501 6.25337 1.47466 7.98373 1.46797ZM7.98373 0.0163937C6.40611 0.0228476 4.86578 0.496562 3.55717 1.37773C2.24857 2.2589 1.23037 3.50803 0.631106 4.96741C0.031846 6.42679 -0.121605 8.031 0.190125 9.57752C0.501855 11.124 1.26479 12.5435 2.38262 13.6568C3.50044 14.7701 4.92304 15.5272 6.47082 15.8326C8.01861 16.138 9.62218 15.978 11.0791 15.3728C12.536 14.7676 13.781 13.7443 14.6568 12.4321C15.5326 11.1199 16 9.57769 16.0001 8.00006C16.0001 6.94888 15.7925 5.90804 15.3892 4.93728C14.986 3.96652 14.395 3.08496 13.6502 2.34318C12.9053 1.6014 12.0214 1.01401 11.049 0.614715C10.0766 0.215423 9.0349 0.0120934 7.98373 0.0163937Z" fill="#F2F2F2"/>
<path d="M11.707 7.39766H8.4954V4.18605H7.41397V7.39766H4.19873V8.47909H7.41397V11.6907H8.4954V8.47909H11.707V7.39766Z" fill="#F2F2F2"/>
</svg>
